<?xml version="1.0" encoding="UTF-8" standalone="no"?>
<!DOCTYPE svg PUBLIC "-//W3C//DTD SVG 1.1//EN"
 "http://www.w3.org/Graphics/SVG/1.1/DTD/svg11.dtd">
<!-- Generated by graphviz version 2.49.0 (0)
 -->
<!-- Title: my_graph Pages: 1 -->
<svg width="642pt" height="237pt"
 viewBox="21.60 21.60 620.60 215.60" xmlns="http://www.w3.org/2000/svg" xmlns:xlink="http://www.w3.org/1999/xlink">
<g id="graph0" class="graph" transform="scale(1 1) rotate(0) translate(25.6 211.6)">
<title>my_graph</title>
<polygon fill="Transparent" stroke="transparent" points="-4,4 -4,-190 595,-190 595,4 -4,4"/>
<!-- document_embeddings -->
<g id="node1" class="node">
<title>document_embeddings</title>
<polygon fill="none" stroke="transparent" points="229,-137 109,-137 109,-101 229,-101 229,-137"/>
<text text-anchor="middle" x="169" y="-116.5" font-family="Arial" font-size="10.00">Document Embeddings</text>
</g>
<!-- ded_models -->
<g id="node4" class="node">
<title>ded_models</title>
<polygon fill="none" stroke="transparent" points="454,-186 331,-186 331,-150 454,-150 454,-186"/>
<text text-anchor="middle" x="392.5" y="-165.5" font-family="Arial" font-size="10.00">From Dedicated Models</text>
</g>
<!-- document_embeddings&#45;&gt;ded_models -->
<g id="edge5" class="edge">
<title>document_embeddings&#45;&gt;ded_models</title>
<path fill="none" stroke="black" d="M229.07,-132.07C257.28,-138.31 291.25,-145.82 320.82,-152.36"/>
<polygon fill="black" stroke="black" points="320.15,-155.8 330.67,-154.54 321.66,-148.97 320.15,-155.8"/>
</g>
<!-- from_token -->
<g id="node5" class="node">
<title>from_token</title>
<polygon fill="none" stroke="transparent" points="456,-136 329,-136 329,-100 456,-100 456,-136"/>
<text text-anchor="middle" x="392.5" y="-115.5" font-family="Arial" font-size="10.00">From Token Embeddings</text>
</g>
<!-- document_embeddings&#45;&gt;from_token -->
<g id="edge4" class="edge">
<title>document_embeddings&#45;&gt;from_token</title>
<path fill="none" stroke="black" d="M229.07,-118.73C256.58,-118.61 289.58,-118.46 318.63,-118.33"/>
<polygon fill="black" stroke="black" points="318.74,-121.83 328.72,-118.28 318.71,-114.83 318.74,-121.83"/>
</g>
<!-- token_embeddings -->
<g id="node2" class="node">
<title>token_embeddings</title>
<polygon fill="none" stroke="transparent" points="220,-87 118,-87 118,-51 220,-51 220,-87"/>
<text text-anchor="middle" x="169" y="-66.5" font-family="Arial" font-size="10.00">Token Embeddings</text>
</g>
<!-- contextual -->
<g id="node7" class="node">
<title>contextual</title>
<polygon fill="none" stroke="transparent" points="454,-86 331,-86 331,-50 454,-50 454,-86"/>
<text text-anchor="middle" x="392.5" y="-65.5" font-family="Arial" font-size="10.00">Contextual Embeddings</text>
</g>
<!-- token_embeddings&#45;&gt;contextual -->
<g id="edge7" class="edge">
<title>token_embeddings&#45;&gt;contextual</title>
<path fill="none" stroke="black" d="M220.26,-68.77C249.86,-68.64 287.78,-68.47 320.4,-68.32"/>
<polygon fill="black" stroke="black" points="320.81,-71.82 330.79,-68.27 320.78,-64.82 320.81,-71.82"/>
</g>
<!-- static -->
<g id="node8" class="node">
<title>static</title>
<polygon fill="none" stroke="transparent" points="442.5,-36 342.5,-36 342.5,0 442.5,0 442.5,-36"/>
<text text-anchor="middle" x="392.5" y="-15.5" font-family="Arial" font-size="10.00">Static Embeddings</text>
</g>
<!-- token_embeddings&#45;&gt;static -->
<g id="edge8" class="edge">
<title>token_embeddings&#45;&gt;static</title>
<path fill="none" stroke="black" d="M220.26,-57.43C253.49,-49.78 297.19,-39.71 332.13,-31.67"/>
<polygon fill="black" stroke="black" points="333.24,-35.01 342.2,-29.35 331.67,-28.18 333.24,-35.01"/>
</g>
<!-- embeddings -->
<g id="node3" class="node">
<title>embeddings</title>
<polygon fill="none" stroke="transparent" points="72,-111 0,-111 0,-75 72,-75 72,-111"/>
<text text-anchor="middle" x="36" y="-90.5" font-family="Arial" font-size="10.00">Embeddings</text>
</g>
<!-- embeddings&#45;&gt;document_embeddings -->
<g id="edge1" class="edge">
<title>embeddings&#45;&gt;document_embeddings</title>
<path fill="none" stroke="black" d="M72.11,-99.97C80.4,-101.61 89.53,-103.43 98.75,-105.26"/>
<polygon fill="black" stroke="black" points="98.28,-108.73 108.77,-107.24 99.64,-101.86 98.28,-108.73"/>
</g>
<!-- embeddings&#45;&gt;token_embeddings -->
<g id="edge2" class="edge">
<title>embeddings&#45;&gt;token_embeddings</title>
<path fill="none" stroke="black" d="M72.11,-86.57C83,-84.57 95.34,-82.31 107.45,-80.09"/>
<polygon fill="black" stroke="black" points="108.32,-83.49 117.53,-78.25 107.06,-76.61 108.32,-83.49"/>
</g>
<!-- sbert -->
<g id="node6" class="node">
<title>sbert</title>
<polygon fill="none" stroke="black" points="591,-186 497,-186 493,-182 493,-150 587,-150 591,-154 591,-186"/>
<polyline fill="none" stroke="black" points="587,-182 493,-182 "/>
<polyline fill="none" stroke="black" points="587,-182 587,-150 "/>
<polyline fill="none" stroke="black" points="587,-182 591,-186 "/>
<text text-anchor="start" x="505.5" y="-171" font-family="Arial" font-size="10.00">Sentence&#45;BERT</text>
<text text-anchor="start" x="501" y="-161" font-family="Arial" font-style="italic" font-size="10.00">on document level</text>
</g>
<!-- ded_models&#45;&gt;sbert -->
<g id="edge6" class="edge">
<title>ded_models&#45;&gt;sbert</title>
<path fill="none" stroke="orange" d="M454.35,-168C463.79,-168 473.52,-168 482.9,-168"/>
<polygon fill="orange" stroke="orange" points="482.9,-171.5 492.9,-168 482.9,-164.5 482.9,-171.5"/>
</g>
<!-- from_token&#45;&gt;token_embeddings -->
<g id="edge3" class="edge">
<title>from_token&#45;&gt;token_embeddings</title>
<path fill="none" stroke="gray" stroke-dasharray="5,2" d="M328.76,-104.12C297.9,-97.29 260.88,-89.1 230.35,-82.35"/>
<polygon fill="gray" stroke="gray" points="230.78,-78.86 220.26,-80.12 229.27,-85.7 230.78,-78.86"/>
<text text-anchor="middle" x="279" y="-103" font-family="Arial" font-size="10.00">e.g. averaging</text>
</g>
</g>
</svg>
