<?xml version="1.0" encoding="UTF-8" standalone="no"?>
<!DOCTYPE svg PUBLIC "-//W3C//DTD SVG 1.1//EN"
 "http://www.w3.org/Graphics/SVG/1.1/DTD/svg11.dtd">
<!-- Generated by graphviz version 2.49.0 (0)
 -->
<!-- Title: my_graph Pages: 1 -->
<svg width="550pt" height="242pt"
 viewBox="21.60 21.60 528.60 220.60" xmlns="http://www.w3.org/2000/svg" xmlns:xlink="http://www.w3.org/1999/xlink">
<g id="graph0" class="graph" transform="scale(1 1) rotate(0) translate(25.6 216.6)">
<title>my_graph</title>
<polygon fill="Transparent" stroke="transparent" points="-4,4 -4,-195 503,-195 503,4 -4,4"/>
<!-- token_embeddings -->
<g id="node1" class="node">
<title>token_embeddings</title>
<polygon fill="none" stroke="transparent" points="102,-126 0,-126 0,-90 102,-90 102,-126"/>
<text text-anchor="middle" x="51" y="-105.5" font-family="Arial" font-size="10.00">Token Embeddings</text>
</g>
<!-- contextual -->
<g id="node2" class="node">
<title>contextual</title>
<polygon fill="none" stroke="transparent" points="261,-171 138,-171 138,-135 261,-135 261,-171"/>
<text text-anchor="middle" x="199.5" y="-150.5" font-family="Arial" font-size="10.00">Contextual Embeddings</text>
</g>
<!-- token_embeddings&#45;&gt;contextual -->
<g id="edge1" class="edge">
<title>token_embeddings&#45;&gt;contextual</title>
<path fill="none" stroke="black" d="M102.01,-123.36C111.05,-126.14 120.62,-129.08 130.08,-131.98"/>
<polygon fill="black" stroke="black" points="129.29,-135.4 139.88,-134.99 131.35,-128.71 129.29,-135.4"/>
</g>
<!-- static -->
<g id="node3" class="node">
<title>static</title>
<polygon fill="none" stroke="transparent" points="249.5,-101 149.5,-101 149.5,-65 249.5,-65 249.5,-101"/>
<text text-anchor="middle" x="199.5" y="-80.5" font-family="Arial" font-size="10.00">Static Embeddings</text>
</g>
<!-- token_embeddings&#45;&gt;static -->
<g id="edge2" class="edge">
<title>token_embeddings&#45;&gt;static</title>
<path fill="none" stroke="black" d="M102.01,-99.47C113.92,-97.43 126.75,-95.24 139.05,-93.15"/>
<polygon fill="black" stroke="black" points="139.95,-96.54 149.21,-91.41 138.77,-89.64 139.95,-96.54"/>
</g>
<!-- sbert -->
<g id="node8" class="node">
<title>sbert</title>
<polygon fill="none" stroke="black" points="386,-191 301,-191 297,-187 297,-155 382,-155 386,-159 386,-191"/>
<polyline fill="none" stroke="black" points="382,-187 297,-187 "/>
<polyline fill="none" stroke="black" points="382,-187 382,-155 "/>
<polyline fill="none" stroke="black" points="382,-187 386,-191 "/>
<text text-anchor="start" x="305" y="-176" font-family="Arial" font-size="10.00">Sentence&#45;BERT</text>
<text text-anchor="start" x="310.5" y="-166" font-family="Arial" font-style="italic" font-size="10.00">on token level</text>
</g>
<!-- contextual&#45;&gt;sbert -->
<g id="edge9" class="edge">
<title>contextual&#45;&gt;sbert</title>
<path fill="none" stroke="orange" d="M261.09,-161.66C269.6,-162.87 278.3,-164.11 286.68,-165.31"/>
<polygon fill="orange" stroke="orange" points="286.3,-168.79 296.69,-166.74 287.29,-161.86 286.3,-168.79"/>
</g>
<!-- glove -->
<g id="node4" class="node">
<title>glove</title>
<polygon fill="none" stroke="black" points="368.5,-141 318.5,-141 314.5,-137 314.5,-105 364.5,-105 368.5,-109 368.5,-141"/>
<polyline fill="none" stroke="black" points="364.5,-137 314.5,-137 "/>
<polyline fill="none" stroke="black" points="364.5,-137 364.5,-105 "/>
<polyline fill="none" stroke="black" points="364.5,-137 368.5,-141 "/>
<text text-anchor="middle" x="341.5" y="-120.5" font-family="Arial" font-size="10.00">GloVe</text>
</g>
<!-- static&#45;&gt;glove -->
<g id="edge3" class="edge">
<title>static&#45;&gt;glove</title>
<path fill="none" stroke="orange" d="M249.86,-97.1C267.85,-102.24 287.84,-107.96 304.46,-112.7"/>
<polygon fill="orange" stroke="orange" points="303.75,-116.14 314.33,-115.52 305.68,-109.41 303.75,-116.14"/>
</g>
<!-- fasttext -->
<g id="node5" class="node">
<title>fasttext</title>
<polygon fill="none" stroke="black" points="487.5,-93 437.5,-93 433.5,-89 433.5,-57 483.5,-57 487.5,-61 487.5,-93"/>
<polyline fill="none" stroke="black" points="483.5,-89 433.5,-89 "/>
<polyline fill="none" stroke="black" points="483.5,-89 483.5,-57 "/>
<polyline fill="none" stroke="black" points="483.5,-89 487.5,-93 "/>
<text text-anchor="middle" x="460.5" y="-72.5" font-family="Arial" font-size="10.00">fastText</text>
</g>
<!-- static&#45;&gt;fasttext -->
<g id="edge4" class="edge">
<title>static&#45;&gt;fasttext</title>
<path fill="none" stroke="orange" d="M249.52,-81.49C300.03,-79.93 377.59,-77.53 422.96,-76.13"/>
<polygon fill="orange" stroke="orange" points="423.34,-79.62 433.22,-75.81 423.12,-72.62 423.34,-79.62"/>
</g>
<!-- numberbatch -->
<g id="node6" class="node">
<title>numberbatch</title>
<polygon fill="none" stroke="black" points="499,-36 426,-36 422,-32 422,0 495,0 499,-4 499,-36"/>
<polyline fill="none" stroke="black" points="495,-32 422,-32 "/>
<polyline fill="none" stroke="black" points="495,-32 495,0 "/>
<polyline fill="none" stroke="black" points="495,-32 499,-36 "/>
<text text-anchor="middle" x="460.5" y="-15.5" font-family="Arial" font-size="10.00">Numberbatch</text>
</g>
<!-- static&#45;&gt;numberbatch -->
<g id="edge5" class="edge">
<title>static&#45;&gt;numberbatch</title>
<path fill="none" stroke="orange" d="M219.73,-64.9C238,-49.04 267.06,-27.14 297,-18 334.25,-6.62 378.58,-7.52 411.53,-10.76"/>
<polygon fill="orange" stroke="orange" points="411.48,-14.27 421.8,-11.88 412.24,-7.31 411.48,-14.27"/>
</g>
<!-- stacked -->
<g id="node7" class="node">
<title>stacked</title>
<polygon fill="none" stroke="black" points="356.5,-55 314.5,-55 314.5,-31 356.5,-31 368.5,-43 356.5,-55"/>
<text text-anchor="middle" x="341.5" y="-40.5" font-family="Arial" font-size="10.00">stacked</text>
</g>
<!-- static&#45;&gt;stacked -->
<g id="edge6" class="edge">
<title>static&#45;&gt;stacked</title>
<path fill="none" stroke="orange" d="M249.86,-68.9C267.85,-63.76 287.84,-58.04 304.46,-53.3"/>
<polygon fill="orange" stroke="orange" points="305.68,-56.59 314.33,-50.48 303.75,-49.86 305.68,-56.59"/>
</g>
<!-- stacked&#45;&gt;fasttext -->
<g id="edge7" class="edge">
<title>stacked&#45;&gt;fasttext</title>
<path fill="none" stroke="lightblue" d="M368.76,-50.18C384.86,-54.59 405.72,-60.29 423.37,-65.12"/>
<polygon fill="lightblue" stroke="lightblue" points="422.76,-68.58 433.33,-67.84 424.61,-61.83 422.76,-68.58"/>
</g>
<!-- stacked&#45;&gt;numberbatch -->
<g id="edge8" class="edge">
<title>stacked&#45;&gt;numberbatch</title>
<path fill="none" stroke="lightblue" d="M368.76,-37.39C381.46,-34.68 397.11,-31.33 411.81,-28.19"/>
<polygon fill="lightblue" stroke="lightblue" points="412.74,-31.57 421.79,-26.06 411.28,-24.72 412.74,-31.57"/>
</g>
</g>
</svg>
