<svg version="1.1" xmlns="http://www.w3.org/2000/svg" xmlns:xlink="http://www.w3.org/1999/xlink" width="683" height="220"><defs/><g><text fill="#eeeeee" stroke="none" font-family="Arial" font-size="24px" font-style="normal" font-weight="normal" text-decoration="none" x="0" y="0">UNREGISTERED</text><text fill="#eeeeee" stroke="none" font-family="Arial" font-size="24px" font-style="normal" font-weight="normal" text-decoration="none" x="0" y="30">UNREGISTERED</text><text fill="#eeeeee" stroke="none" font-family="Arial" font-size="24px" font-style="normal" font-weight="normal" text-decoration="none" x="0" y="60">UNREGISTERED</text><text fill="#eeeeee" stroke="none" font-family="Arial" font-size="24px" font-style="normal" font-weight="normal" text-decoration="none" x="0" y="90">UNREGISTERED</text><text fill="#eeeeee" stroke="none" font-family="Arial" font-size="24px" font-style="normal" font-weight="normal" text-decoration="none" x="0" y="120">UNREGISTERED</text><text fill="#eeeeee" stroke="none" font-family="Arial" font-size="24px" font-style="normal" font-weight="normal" text-decoration="none" x="0" y="150">UNREGISTERED</text><text fill="#eeeeee" stroke="none" font-family="Arial" font-size="24px" font-style="normal" font-weight="normal" text-decoration="none" x="0" y="180">UNREGISTERED</text><text fill="#eeeeee" stroke="none" font-family="Arial" font-size="24px" font-style="normal" font-weight="normal" text-decoration="none" x="0" y="210">UNREGISTERED</text><text fill="#eeeeee" stroke="none" font-family="Arial" font-size="24px" font-style="normal" font-weight="normal" text-decoration="none" x="200" y="0">UNREGISTERED</text><text fill="#eeeeee" stroke="none" font-family="Arial" font-size="24px" font-style="normal" font-weight="normal" text-decoration="none" x="200" y="30">UNREGISTERED</text><text fill="#eeeeee" stroke="none" font-family="Arial" font-size="24px" font-style="normal" font-weight="normal" text-decoration="none" x="200" y="60">UNREGISTERED</text><text fill="#eeeeee" stroke="none" font-family="Arial" font-size="24px" font-style="normal" font-weight="normal" text-decoration="none" x="200" y="90">UNREGISTERED</text><text fill="#eeeeee" stroke="none" font-family="Arial" font-size="24px" font-style="normal" font-weight="normal" text-decoration="none" x="200" y="120">UNREGISTERED</text><text fill="#eeeeee" stroke="none" font-family="Arial" font-size="24px" font-style="normal" font-weight="normal" text-decoration="none" x="200" y="150">UNREGISTERED</text><text fill="#eeeeee" stroke="none" font-family="Arial" font-size="24px" font-style="normal" font-weight="normal" text-decoration="none" x="200" y="180">UNREGISTERED</text><text fill="#eeeeee" stroke="none" font-family="Arial" font-size="24px" font-style="normal" font-weight="normal" text-decoration="none" x="200" y="210">UNREGISTERED</text><text fill="#eeeeee" stroke="none" font-family="Arial" font-size="24px" font-style="normal" font-weight="normal" text-decoration="none" x="400" y="0">UNREGISTERED</text><text fill="#eeeeee" stroke="none" font-family="Arial" font-size="24px" font-style="normal" font-weight="normal" text-decoration="none" x="400" y="30">UNREGISTERED</text><text fill="#eeeeee" stroke="none" font-family="Arial" font-size="24px" font-style="normal" font-weight="normal" text-decoration="none" x="400" y="60">UNREGISTERED</text><text fill="#eeeeee" stroke="none" font-family="Arial" font-size="24px" font-style="normal" font-weight="normal" text-decoration="none" x="400" y="90">UNREGISTERED</text><text fill="#eeeeee" stroke="none" font-family="Arial" font-size="24px" font-style="normal" font-weight="normal" text-decoration="none" x="400" y="120">UNREGISTERED</text><text fill="#eeeeee" stroke="none" font-family="Arial" font-size="24px" font-style="normal" font-weight="normal" text-decoration="none" x="400" y="150">UNREGISTERED</text><text fill="#eeeeee" stroke="none" font-family="Arial" font-size="24px" font-style="normal" font-weight="normal" text-decoration="none" x="400" y="180">UNREGISTERED</text><text fill="#eeeeee" stroke="none" font-family="Arial" font-size="24px" font-style="normal" font-weight="normal" text-decoration="none" x="400" y="210">UNREGISTERED</text><text fill="#eeeeee" stroke="none" font-family="Arial" font-size="24px" font-style="normal" font-weight="normal" text-decoration="none" x="600" y="0">UNREGISTERED</text><text fill="#eeeeee" stroke="none" font-family="Arial" font-size="24px" font-style="normal" font-weight="normal" text-decoration="none" x="600" y="30">UNREGISTERED</text><text fill="#eeeeee" stroke="none" font-family="Arial" font-size="24px" font-style="normal" font-weight="normal" text-decoration="none" x="600" y="60">UNREGISTERED</text><text fill="#eeeeee" stroke="none" font-family="Arial" font-size="24px" font-style="normal" font-weight="normal" text-decoration="none" x="600" y="90">UNREGISTERED</text><text fill="#eeeeee" stroke="none" font-family="Arial" font-size="24px" font-style="normal" font-weight="normal" text-decoration="none" x="600" y="120">UNREGISTERED</text><text fill="#eeeeee" stroke="none" font-family="Arial" font-size="24px" font-style="normal" font-weight="normal" text-decoration="none" x="600" y="150">UNREGISTERED</text><text fill="#eeeeee" stroke="none" font-family="Arial" font-size="24px" font-style="normal" font-weight="normal" text-decoration="none" x="600" y="180">UNREGISTERED</text><text fill="#eeeeee" stroke="none" font-family="Arial" font-size="24px" font-style="normal" font-weight="normal" text-decoration="none" x="600" y="210">UNREGISTERED</text><g transform="translate(-46,-134) scale(1,1)"><rect fill="#C0C0C0" stroke="none" x="63" y="159" width="152" height="57" opacity="0.2"/></g><g transform="translate(-46,-134) scale(1,1)"><rect fill="#ffffff" stroke="none" x="56" y="152" width="152" height="57"/></g><g transform="translate(-46,-134) scale(1,1)"><path fill="none" stroke="#000000" d="M 56 152 L 208 152 L 208 209 L 56 209 L 56 152 Z Z" stroke-miterlimit="10"/></g><g transform="translate(-46,-134) scale(1,1)"><path fill="none" stroke="#000000" d="M 56 177 L 208 177" stroke-miterlimit="10"/></g><g transform="translate(-46,-134) scale(1,1)"><path fill="none" stroke="#000000" d="M 56 200 L 208 200" stroke-miterlimit="10"/></g><g transform="translate(-46,-134) scale(1,1)"><g><path fill="none" stroke="none"/><text fill="#000000" stroke="none" font-family="Arial" font-size="13px" font-style="normal" font-weight="bold" text-decoration="none" x="111.043212890625" y="171.5">Pattern</text></g></g><g transform="translate(-46,-134) scale(1,1)"><g><path fill="none" stroke="none"/><text fill="#000000" stroke="none" font-family="Arial" font-size="13px" font-style="normal" font-weight="normal" text-decoration="none" x="61" y="194.5">+phrase: String</text></g></g><g transform="translate(-46,-134) scale(1,1)"><rect fill="#C0C0C0" stroke="none" x="327" y="159" width="135" height="57" opacity="0.2"/></g><g transform="translate(-46,-134) scale(1,1)"><rect fill="#ffffff" stroke="none" x="320" y="152" width="135" height="57"/></g><g transform="translate(-46,-134) scale(1,1)"><path fill="none" stroke="#000000" d="M 320 152 L 455 152 L 455 209 L 320 209 L 320 152 Z Z" stroke-miterlimit="10"/></g><g transform="translate(-46,-134) scale(1,1)"><path fill="none" stroke="#000000" d="M 320 177 L 455 177" stroke-miterlimit="10"/></g><g transform="translate(-46,-134) scale(1,1)"><path fill="none" stroke="#000000" d="M 320 200 L 455 200" stroke-miterlimit="10"/></g><g transform="translate(-46,-134) scale(1,1)"><g><path fill="none" stroke="none"/><text fill="#000000" stroke="none" font-family="Arial" font-size="13px" font-style="normal" font-weight="bold" text-decoration="none" x="356.069580078125" y="171.5">Occurence</text></g></g><g transform="translate(-46,-134) scale(1,1)"><g><path fill="none" stroke="none"/><text fill="#000000" stroke="none" font-family="Arial" font-size="13px" font-style="normal" font-weight="normal" text-decoration="none" x="325" y="194.5">+unique_id: String</text></g></g><g transform="translate(-46,-134) scale(1,1)"><path fill="none" stroke="#000000" d="M 319 180 L 209 180" stroke-miterlimit="10"/></g><g transform="translate(-46,-134) scale(1,1)"><path fill="#000000" stroke="none" d="M 219.16267485762415 175.790482243984 L 209 180 L 219.16267485762415 184.209517756016 L 231 180"/></g><g transform="translate(-46,-134) scale(1,1)"><path fill="none" stroke="#000000" d="M 219.16267485762415 175.790482243984 L 209 180 L 219.16267485762415 184.209517756016 L 231 180 L 219.16267485762415 175.790482243984" stroke-miterlimit="10"/></g><g transform="translate(-46,-134) scale(1,1)"><g><path fill="none" stroke="none"/><text fill="#000000" stroke="none" font-family="Arial" font-size="13px" font-style="normal" font-weight="normal" text-decoration="none" x="287.5" y="173.5">1..*</text></g></g><g transform="translate(-46,-134) scale(1,1)"><g><path fill="none" stroke="none"/><text fill="#000000" stroke="none" font-family="Arial" font-size="13px" font-style="normal" font-weight="normal" text-decoration="none" x="226.5" y="173.5">1</text></g></g><g transform="translate(-46,-134) scale(1,1)"><rect fill="#C0C0C0" stroke="none" x="207" y="279" width="120" height="72" opacity="0.2"/></g><g transform="translate(-46,-134) scale(1,1)"><rect fill="#ffffff" stroke="none" x="200" y="272" width="120" height="72"/></g><g transform="translate(-46,-134) scale(1,1)"><path fill="none" stroke="#000000" d="M 200 272 L 320 272 L 320 344 L 200 344 L 200 272 Z Z" stroke-miterlimit="10"/></g><g transform="translate(-46,-134) scale(1,1)"><path fill="none" stroke="#000000" d="M 200 297 L 320 297" stroke-miterlimit="10"/></g><g transform="translate(-46,-134) scale(1,1)"><path fill="none" stroke="#000000" d="M 200 335 L 320 335" stroke-miterlimit="10"/></g><g transform="translate(-46,-134) scale(1,1)"><g><path fill="none" stroke="none"/><text fill="#000000" stroke="none" font-family="Arial" font-size="13px" font-style="normal" font-weight="bold" text-decoration="none" x="239.405029296875" y="291.5">Source</text></g></g><g transform="translate(-46,-134) scale(1,1)"><g><path fill="none" stroke="none"/><text fill="#000000" stroke="none" font-family="Arial" font-size="13px" font-style="normal" font-weight="normal" text-decoration="none" x="205" y="314.5">+work: String</text></g></g><g transform="translate(-46,-134) scale(1,1)"><g><path fill="none" stroke="none"/><text fill="#000000" stroke="none" font-family="Arial" font-size="13px" font-style="normal" font-weight="normal" text-decoration="none" x="205" y="329.5">+author: String</text></g></g><g transform="translate(-46,-134) scale(1,1)"><path fill="none" stroke="#000000" d="M 200 312 L 139 312 M 139 312 A 8 8 0 0 1 131 304 L 131 209" stroke-miterlimit="10"/></g><g transform="translate(-46,-134) scale(1,1)"><path fill="#FFFFFF" stroke="none" d="M 135.209517756016 219.16267485762415 L 131 209 L 126.79048224398402 219.16267485762415 L 131 231"/></g><g transform="translate(-46,-134) scale(1,1)"><path fill="none" stroke="#000000" d="M 135.209517756016 219.16267485762415 L 131 209 L 126.79048224398402 219.16267485762415 L 131 231 L 135.209517756016 219.16267485762415" stroke-miterlimit="10"/></g><g transform="translate(-46,-134) scale(1,1)"><g><path fill="none" stroke="none"/><text fill="#000000" stroke="none" font-family="Arial" font-size="13px" font-style="normal" font-weight="normal" text-decoration="none" x="174.5" y="305.5">1</text></g></g><g transform="translate(-46,-134) scale(1,1)"><g><path fill="none" stroke="none"/><text fill="#000000" stroke="none" font-family="Arial" font-size="13px" font-style="normal" font-weight="normal" text-decoration="none" x="133.5" y="236.5">0..*</text></g></g><g transform="translate(-46,-134) scale(1,1)"><path fill="none" stroke="#000000" d="M 320 312 L 378 312 M 378 312 A 8 8 0 0 0 386 304 L 386 209" stroke-miterlimit="10"/></g><g transform="translate(-46,-134) scale(1,1)"><path fill="#FFFFFF" stroke="none" d="M 390.209517756016 219.16267485762415 L 386 209 L 381.790482243984 219.16267485762415 L 386 231"/></g><g transform="translate(-46,-134) scale(1,1)"><path fill="none" stroke="#000000" d="M 390.209517756016 219.16267485762415 L 386 209 L 381.790482243984 219.16267485762415 L 386 231 L 390.209517756016 219.16267485762415" stroke-miterlimit="10"/></g><g transform="translate(-46,-134) scale(1,1)"><g><path fill="none" stroke="none"/><text fill="#000000" stroke="none" font-family="Arial" font-size="13px" font-style="normal" font-weight="normal" text-decoration="none" x="337.5" y="330.5">1</text></g></g><g transform="translate(-46,-134) scale(1,1)"><g><path fill="none" stroke="none"/><text fill="#000000" stroke="none" font-family="Arial" font-size="13px" font-style="normal" font-weight="normal" text-decoration="none" x="388.5" y="236.5">0..*</text></g></g><g transform="translate(-46,-134) scale(1,1)"><rect fill="#C0C0C0" stroke="none" x="559" y="151" width="167" height="72" opacity="0.2"/></g><g transform="translate(-46,-134) scale(1,1)"><rect fill="#ffffff" stroke="none" x="552" y="144" width="167" height="72"/></g><g transform="translate(-46,-134) scale(1,1)"><path fill="none" stroke="#000000" d="M 552 144 L 719 144 L 719 216 L 552 216 L 552 144 Z Z" stroke-miterlimit="10"/></g><g transform="translate(-46,-134) scale(1,1)"><path fill="none" stroke="#000000" d="M 552 169 L 719 169" stroke-miterlimit="10"/></g><g transform="translate(-46,-134) scale(1,1)"><path fill="none" stroke="#000000" d="M 552 207 L 719 207" stroke-miterlimit="10"/></g><g transform="translate(-46,-134) scale(1,1)"><g><path fill="none" stroke="none"/><text fill="#000000" stroke="none" font-family="Arial" font-size="13px" font-style="normal" font-weight="bold" text-decoration="none" x="608.760498046875" y="163.5">Evidence</text></g></g><g transform="translate(-46,-134) scale(1,1)"><g><path fill="none" stroke="none"/><text fill="#000000" stroke="none" font-family="Arial" font-size="13px" font-style="normal" font-weight="normal" text-decoration="none" x="557" y="186.5">+context: String</text></g></g><g transform="translate(-46,-134) scale(1,1)"><g><path fill="none" stroke="none"/><text fill="#000000" stroke="none" font-family="Arial" font-size="13px" font-style="normal" font-weight="normal" text-decoration="none" x="557" y="201.5">+phrase: String</text></g></g><g transform="translate(-46,-134) scale(1,1)"><path fill="none" stroke="#000000" d="M 551 180 L 456 180" stroke-miterlimit="10"/></g><g transform="translate(-46,-134) scale(1,1)"><path fill="#FFFFFF" stroke="none" d="M 466.16267485762415 175.790482243984 L 456 180 L 466.16267485762415 184.209517756016 L 478 180"/></g><g transform="translate(-46,-134) scale(1,1)"><path fill="none" stroke="#000000" d="M 466.16267485762415 175.790482243984 L 456 180 L 466.16267485762415 184.209517756016 L 478 180 L 466.16267485762415 175.790482243984" stroke-miterlimit="10"/></g><g transform="translate(-46,-134) scale(1,1)"><g><path fill="none" stroke="none"/><text fill="#000000" stroke="none" font-family="Arial" font-size="13px" font-style="normal" font-weight="normal" text-decoration="none" x="525.5" y="173.5">1</text></g></g><g transform="translate(-46,-134) scale(1,1)"><g><path fill="none" stroke="none"/><text fill="#000000" stroke="none" font-family="Arial" font-size="13px" font-style="normal" font-weight="normal" text-decoration="none" x="467.5" y="173.5">0..*</text></g></g></g></svg>