<svg version="1.1" xmlns="http://www.w3.org/2000/svg" xmlns:xlink="http://www.w3.org/1999/xlink" width="1108" height="379"><defs/><g><text fill="#eeeeee" stroke="none" font-family="Arial" font-size="24px" font-style="normal" font-weight="normal" text-decoration="none" x="0" y="0">UNREGISTERED</text><text fill="#eeeeee" stroke="none" font-family="Arial" font-size="24px" font-style="normal" font-weight="normal" text-decoration="none" x="0" y="30">UNREGISTERED</text><text fill="#eeeeee" stroke="none" font-family="Arial" font-size="24px" font-style="normal" font-weight="normal" text-decoration="none" x="0" y="60">UNREGISTERED</text><text fill="#eeeeee" stroke="none" font-family="Arial" font-size="24px" font-style="normal" font-weight="normal" text-decoration="none" x="0" y="90">UNREGISTERED</text><text fill="#eeeeee" stroke="none" font-family="Arial" font-size="24px" font-style="normal" font-weight="normal" text-decoration="none" x="0" y="120">UNREGISTERED</text><text fill="#eeeeee" stroke="none" font-family="Arial" font-size="24px" font-style="normal" font-weight="normal" text-decoration="none" x="0" y="150">UNREGISTERED</text><text fill="#eeeeee" stroke="none" font-family="Arial" font-size="24px" font-style="normal" font-weight="normal" text-decoration="none" x="0" y="180">UNREGISTERED</text><text fill="#eeeeee" stroke="none" font-family="Arial" font-size="24px" font-style="normal" font-weight="normal" text-decoration="none" x="0" y="210">UNREGISTERED</text><text fill="#eeeeee" stroke="none" font-family="Arial" font-size="24px" font-style="normal" font-weight="normal" text-decoration="none" x="0" y="240">UNREGISTERED</text><text fill="#eeeeee" stroke="none" font-family="Arial" font-size="24px" font-style="normal" font-weight="normal" text-decoration="none" x="0" y="270">UNREGISTERED</text><text fill="#eeeeee" stroke="none" font-family="Arial" font-size="24px" font-style="normal" font-weight="normal" text-decoration="none" x="0" y="300">UNREGISTERED</text><text fill="#eeeeee" stroke="none" font-family="Arial" font-size="24px" font-style="normal" font-weight="normal" text-decoration="none" x="0" y="330">UNREGISTERED</text><text fill="#eeeeee" stroke="none" font-family="Arial" font-size="24px" font-style="normal" font-weight="normal" text-decoration="none" x="0" y="360">UNREGISTERED</text><text fill="#eeeeee" stroke="none" font-family="Arial" font-size="24px" font-style="normal" font-weight="normal" text-decoration="none" x="200" y="0">UNREGISTERED</text><text fill="#eeeeee" stroke="none" font-family="Arial" font-size="24px" font-style="normal" font-weight="normal" text-decoration="none" x="200" y="30">UNREGISTERED</text><text fill="#eeeeee" stroke="none" font-family="Arial" font-size="24px" font-style="normal" font-weight="normal" text-decoration="none" x="200" y="60">UNREGISTERED</text><text fill="#eeeeee" stroke="none" font-family="Arial" font-size="24px" font-style="normal" font-weight="normal" text-decoration="none" x="200" y="90">UNREGISTERED</text><text fill="#eeeeee" stroke="none" font-family="Arial" font-size="24px" font-style="normal" font-weight="normal" text-decoration="none" x="200" y="120">UNREGISTERED</text><text fill="#eeeeee" stroke="none" font-family="Arial" font-size="24px" font-style="normal" font-weight="normal" text-decoration="none" x="200" y="150">UNREGISTERED</text><text fill="#eeeeee" stroke="none" font-family="Arial" font-size="24px" font-style="normal" font-weight="normal" text-decoration="none" x="200" y="180">UNREGISTERED</text><text fill="#eeeeee" stroke="none" font-family="Arial" font-size="24px" font-style="normal" font-weight="normal" text-decoration="none" x="200" y="210">UNREGISTERED</text><text fill="#eeeeee" stroke="none" font-family="Arial" font-size="24px" font-style="normal" font-weight="normal" text-decoration="none" x="200" y="240">UNREGISTERED</text><text fill="#eeeeee" stroke="none" font-family="Arial" font-size="24px" font-style="normal" font-weight="normal" text-decoration="none" x="200" y="270">UNREGISTERED</text><text fill="#eeeeee" stroke="none" font-family="Arial" font-size="24px" font-style="normal" font-weight="normal" text-decoration="none" x="200" y="300">UNREGISTERED</text><text fill="#eeeeee" stroke="none" font-family="Arial" font-size="24px" font-style="normal" font-weight="normal" text-decoration="none" x="200" y="330">UNREGISTERED</text><text fill="#eeeeee" stroke="none" font-family="Arial" font-size="24px" font-style="normal" font-weight="normal" text-decoration="none" x="200" y="360">UNREGISTERED</text><text fill="#eeeeee" stroke="none" font-family="Arial" font-size="24px" font-style="normal" font-weight="normal" text-decoration="none" x="400" y="0">UNREGISTERED</text><text fill="#eeeeee" stroke="none" font-family="Arial" font-size="24px" font-style="normal" font-weight="normal" text-decoration="none" x="400" y="30">UNREGISTERED</text><text fill="#eeeeee" stroke="none" font-family="Arial" font-size="24px" font-style="normal" font-weight="normal" text-decoration="none" x="400" y="60">UNREGISTERED</text><text fill="#eeeeee" stroke="none" font-family="Arial" font-size="24px" font-style="normal" font-weight="normal" text-decoration="none" x="400" y="90">UNREGISTERED</text><text fill="#eeeeee" stroke="none" font-family="Arial" font-size="24px" font-style="normal" font-weight="normal" text-decoration="none" x="400" y="120">UNREGISTERED</text><text fill="#eeeeee" stroke="none" font-family="Arial" font-size="24px" font-style="normal" font-weight="normal" text-decoration="none" x="400" y="150">UNREGISTERED</text><text fill="#eeeeee" stroke="none" font-family="Arial" font-size="24px" font-style="normal" font-weight="normal" text-decoration="none" x="400" y="180">UNREGISTERED</text><text fill="#eeeeee" stroke="none" font-family="Arial" font-size="24px" font-style="normal" font-weight="normal" text-decoration="none" x="400" y="210">UNREGISTERED</text><text fill="#eeeeee" stroke="none" font-family="Arial" font-size="24px" font-style="normal" font-weight="normal" text-decoration="none" x="400" y="240">UNREGISTERED</text><text fill="#eeeeee" stroke="none" font-family="Arial" font-size="24px" font-style="normal" font-weight="normal" text-decoration="none" x="400" y="270">UNREGISTERED</text><text fill="#eeeeee" stroke="none" font-family="Arial" font-size="24px" font-style="normal" font-weight="normal" text-decoration="none" x="400" y="300">UNREGISTERED</text><text fill="#eeeeee" stroke="none" font-family="Arial" font-size="24px" font-style="normal" font-weight="normal" text-decoration="none" x="400" y="330">UNREGISTERED</text><text fill="#eeeeee" stroke="none" font-family="Arial" font-size="24px" font-style="normal" font-weight="normal" text-decoration="none" x="400" y="360">UNREGISTERED</text><text fill="#eeeeee" stroke="none" font-family="Arial" font-size="24px" font-style="normal" font-weight="normal" text-decoration="none" x="600" y="0">UNREGISTERED</text><text fill="#eeeeee" stroke="none" font-family="Arial" font-size="24px" font-style="normal" font-weight="normal" text-decoration="none" x="600" y="30">UNREGISTERED</text><text fill="#eeeeee" stroke="none" font-family="Arial" font-size="24px" font-style="normal" font-weight="normal" text-decoration="none" x="600" y="60">UNREGISTERED</text><text fill="#eeeeee" stroke="none" font-family="Arial" font-size="24px" font-style="normal" font-weight="normal" text-decoration="none" x="600" y="90">UNREGISTERED</text><text fill="#eeeeee" stroke="none" font-family="Arial" font-size="24px" font-style="normal" font-weight="normal" text-decoration="none" x="600" y="120">UNREGISTERED</text><text fill="#eeeeee" stroke="none" font-family="Arial" font-size="24px" font-style="normal" font-weight="normal" text-decoration="none" x="600" y="150">UNREGISTERED</text><text fill="#eeeeee" stroke="none" font-family="Arial" font-size="24px" font-style="normal" font-weight="normal" text-decoration="none" x="600" y="180">UNREGISTERED</text><text fill="#eeeeee" stroke="none" font-family="Arial" font-size="24px" font-style="normal" font-weight="normal" text-decoration="none" x="600" y="210">UNREGISTERED</text><text fill="#eeeeee" stroke="none" font-family="Arial" font-size="24px" font-style="normal" font-weight="normal" text-decoration="none" x="600" y="240">UNREGISTERED</text><text fill="#eeeeee" stroke="none" font-family="Arial" font-size="24px" font-style="normal" font-weight="normal" text-decoration="none" x="600" y="270">UNREGISTERED</text><text fill="#eeeeee" stroke="none" font-family="Arial" font-size="24px" font-style="normal" font-weight="normal" text-decoration="none" x="600" y="300">UNREGISTERED</text><text fill="#eeeeee" stroke="none" font-family="Arial" font-size="24px" font-style="normal" font-weight="normal" text-decoration="none" x="600" y="330">UNREGISTERED</text><text fill="#eeeeee" stroke="none" font-family="Arial" font-size="24px" font-style="normal" font-weight="normal" text-decoration="none" x="600" y="360">UNREGISTERED</text><text fill="#eeeeee" stroke="none" font-family="Arial" font-size="24px" font-style="normal" font-weight="normal" text-decoration="none" x="800" y="0">UNREGISTERED</text><text fill="#eeeeee" stroke="none" font-family="Arial" font-size="24px" font-style="normal" font-weight="normal" text-decoration="none" x="800" y="30">UNREGISTERED</text><text fill="#eeeeee" stroke="none" font-family="Arial" font-size="24px" font-style="normal" font-weight="normal" text-decoration="none" x="800" y="60">UNREGISTERED</text><text fill="#eeeeee" stroke="none" font-family="Arial" font-size="24px" font-style="normal" font-weight="normal" text-decoration="none" x="800" y="90">UNREGISTERED</text><text fill="#eeeeee" stroke="none" font-family="Arial" font-size="24px" font-style="normal" font-weight="normal" text-decoration="none" x="800" y="120">UNREGISTERED</text><text fill="#eeeeee" stroke="none" font-family="Arial" font-size="24px" font-style="normal" font-weight="normal" text-decoration="none" x="800" y="150">UNREGISTERED</text><text fill="#eeeeee" stroke="none" font-family="Arial" font-size="24px" font-style="normal" font-weight="normal" text-decoration="none" x="800" y="180">UNREGISTERED</text><text fill="#eeeeee" stroke="none" font-family="Arial" font-size="24px" font-style="normal" font-weight="normal" text-decoration="none" x="800" y="210">UNREGISTERED</text><text fill="#eeeeee" stroke="none" font-family="Arial" font-size="24px" font-style="normal" font-weight="normal" text-decoration="none" x="800" y="240">UNREGISTERED</text><text fill="#eeeeee" stroke="none" font-family="Arial" font-size="24px" font-style="normal" font-weight="normal" text-decoration="none" x="800" y="270">UNREGISTERED</text><text fill="#eeeeee" stroke="none" font-family="Arial" font-size="24px" font-style="normal" font-weight="normal" text-decoration="none" x="800" y="300">UNREGISTERED</text><text fill="#eeeeee" stroke="none" font-family="Arial" font-size="24px" font-style="normal" font-weight="normal" text-decoration="none" x="800" y="330">UNREGISTERED</text><text fill="#eeeeee" stroke="none" font-family="Arial" font-size="24px" font-style="normal" font-weight="normal" text-decoration="none" x="800" y="360">UNREGISTERED</text><text fill="#eeeeee" stroke="none" font-family="Arial" font-size="24px" font-style="normal" font-weight="normal" text-decoration="none" x="1000" y="0">UNREGISTERED</text><text fill="#eeeeee" stroke="none" font-family="Arial" font-size="24px" font-style="normal" font-weight="normal" text-decoration="none" x="1000" y="30">UNREGISTERED</text><text fill="#eeeeee" stroke="none" font-family="Arial" font-size="24px" font-style="normal" font-weight="normal" text-decoration="none" x="1000" y="60">UNREGISTERED</text><text fill="#eeeeee" stroke="none" font-family="Arial" font-size="24px" font-style="normal" font-weight="normal" text-decoration="none" x="1000" y="90">UNREGISTERED</text><text fill="#eeeeee" stroke="none" font-family="Arial" font-size="24px" font-style="normal" font-weight="normal" text-decoration="none" x="1000" y="120">UNREGISTERED</text><text fill="#eeeeee" stroke="none" font-family="Arial" font-size="24px" font-style="normal" font-weight="normal" text-decoration="none" x="1000" y="150">UNREGISTERED</text><text fill="#eeeeee" stroke="none" font-family="Arial" font-size="24px" font-style="normal" font-weight="normal" text-decoration="none" x="1000" y="180">UNREGISTERED</text><text fill="#eeeeee" stroke="none" font-family="Arial" font-size="24px" font-style="normal" font-weight="normal" text-decoration="none" x="1000" y="210">UNREGISTERED</text><text fill="#eeeeee" stroke="none" font-family="Arial" font-size="24px" font-style="normal" font-weight="normal" text-decoration="none" x="1000" y="240">UNREGISTERED</text><text fill="#eeeeee" stroke="none" font-family="Arial" font-size="24px" font-style="normal" font-weight="normal" text-decoration="none" x="1000" y="270">UNREGISTERED</text><text fill="#eeeeee" stroke="none" font-family="Arial" font-size="24px" font-style="normal" font-weight="normal" text-decoration="none" x="1000" y="300">UNREGISTERED</text><text fill="#eeeeee" stroke="none" font-family="Arial" font-size="24px" font-style="normal" font-weight="normal" text-decoration="none" x="1000" y="330">UNREGISTERED</text><text fill="#eeeeee" stroke="none" font-family="Arial" font-size="24px" font-style="normal" font-weight="normal" text-decoration="none" x="1000" y="360">UNREGISTERED</text><g transform="translate(2,-86) scale(1,1)"><rect fill="#C0C0C0" stroke="none" x="223" y="103" width="151" height="57" opacity="0.2"/></g><g transform="translate(2,-86) scale(1,1)"><rect fill="#ffffff" stroke="none" x="216" y="96" width="151" height="57"/></g><g transform="translate(2,-86) scale(1,1)"><path fill="none" stroke="#000000" d="M 216 96 L 367 96 L 367 153 L 216 153 L 216 96 Z Z" stroke-miterlimit="10"/></g><g transform="translate(2,-86) scale(1,1)"><path fill="none" stroke="#000000" d="M 216 121 L 367 121" stroke-miterlimit="10"/></g><g transform="translate(2,-86) scale(1,1)"><path fill="none" stroke="#000000" d="M 216 131 L 367 131" stroke-miterlimit="10"/></g><g transform="translate(2,-86) scale(1,1)"><g><path fill="none" stroke="none"/><text fill="#000000" stroke="none" font-family="Arial" font-size="13px" font-style="normal" font-weight="bold" text-decoration="none" x="268.37548828125" y="115.5">Session</text></g></g><g transform="translate(2,-86) scale(1,1)"><g><path fill="none" stroke="none"/><text fill="#000000" stroke="none" font-family="Arial" font-size="13px" font-style="normal" font-weight="normal" text-decoration="none" x="221" y="148.5">+partition(level)</text></g></g><g transform="translate(2,-86) scale(1,1)"><rect fill="#C0C0C0" stroke="none" x="423" y="239" width="104" height="44" opacity="0.2"/></g><g transform="translate(2,-86) scale(1,1)"><rect fill="#ffffff" stroke="none" x="416" y="232" width="104" height="44"/></g><g transform="translate(2,-86) scale(1,1)"><path fill="none" stroke="#000000" d="M 416 232 L 520 232 L 520 276 L 416 276 L 416 232 Z Z" stroke-miterlimit="10"/></g><g transform="translate(2,-86) scale(1,1)"><path fill="none" stroke="#000000" d="M 416 257 L 520 257" stroke-miterlimit="10"/></g><g transform="translate(2,-86) scale(1,1)"><path fill="none" stroke="#000000" d="M 416 267 L 520 267" stroke-miterlimit="10"/></g><g transform="translate(2,-86) scale(1,1)"><g><path fill="none" stroke="none"/><text fill="#000000" stroke="none" font-family="Arial" font-size="13px" font-style="normal" font-weight="bold" text-decoration="none" x="438.37548828125" y="251.5">Document</text></g></g><g transform="translate(2,-86) scale(1,1)"><rect fill="#C0C0C0" stroke="none" x="119" y="231" width="104" height="44" opacity="0.2"/></g><g transform="translate(2,-86) scale(1,1)"><rect fill="#ffffff" stroke="none" x="112" y="224" width="104" height="44"/></g><g transform="translate(2,-86) scale(1,1)"><path fill="none" stroke="#000000" d="M 112 224 L 216 224 L 216 268 L 112 268 L 112 224 Z Z" stroke-miterlimit="10"/></g><g transform="translate(2,-86) scale(1,1)"><path fill="none" stroke="#000000" d="M 112 249 L 216 249" stroke-miterlimit="10"/></g><g transform="translate(2,-86) scale(1,1)"><path fill="none" stroke="#000000" d="M 112 259 L 216 259" stroke-miterlimit="10"/></g><g transform="translate(2,-86) scale(1,1)"><g><path fill="none" stroke="none"/><text fill="#000000" stroke="none" font-family="Arial" font-size="13px" font-style="normal" font-weight="bold" text-decoration="none" x="131.115966796875" y="243.5">Embedding</text></g></g><g transform="translate(2,-86) scale(1,1)"><rect fill="#C0C0C0" stroke="none" x="15" y="335" width="152" height="44" opacity="0.2"/></g><g transform="translate(2,-86) scale(1,1)"><rect fill="#ffffff" stroke="none" x="8" y="328" width="152" height="44"/></g><g transform="translate(2,-86) scale(1,1)"><path fill="none" stroke="#000000" d="M 8 328 L 160 328 L 160 372 L 8 372 L 8 328 Z Z" stroke-miterlimit="10"/></g><g transform="translate(2,-86) scale(1,1)"><path fill="none" stroke="#000000" d="M 8 353 L 160 353" stroke-miterlimit="10"/></g><g transform="translate(2,-86) scale(1,1)"><path fill="none" stroke="#000000" d="M 8 363 L 160 363" stroke-miterlimit="10"/></g><g transform="translate(2,-86) scale(1,1)"><g><path fill="none" stroke="none"/><text fill="#000000" stroke="none" font-family="Arial" font-size="13px" font-style="normal" font-weight="bold" text-decoration="none" x="34.859619140625" y="347.5">StaticEmbedding</text></g></g><g transform="translate(2,-86) scale(1,1)"><rect fill="#C0C0C0" stroke="none" x="215" y="335" width="146.947265625" height="44" opacity="0.2"/></g><g transform="translate(2,-86) scale(1,1)"><rect fill="#ffffff" stroke="none" x="208" y="328" width="146.947265625" height="44"/></g><g transform="translate(2,-86) scale(1,1)"><path fill="none" stroke="#000000" d="M 208 328 L 354.947265625 328 L 354.947265625 372 L 208 372 L 208 328 Z Z" stroke-miterlimit="10"/></g><g transform="translate(2,-86) scale(1,1)"><path fill="none" stroke="#000000" d="M 208 353 L 354.947265625 353" stroke-miterlimit="10"/></g><g transform="translate(2,-86) scale(1,1)"><path fill="none" stroke="#000000" d="M 208 363 L 354.947265625 363" stroke-miterlimit="10"/></g><g transform="translate(2,-86) scale(1,1)"><g><path fill="none" stroke="none"/><text fill="#000000" stroke="none" font-family="Arial" font-size="13px" font-style="normal" font-weight="bold" text-decoration="none" x="217.5146484375" y="347.5">ContextualEmbedding</text></g></g><g transform="translate(2,-86) scale(1,1)"><rect fill="#C0C0C0" stroke="none" x="623" y="223" width="104" height="44" opacity="0.2"/></g><g transform="translate(2,-86) scale(1,1)"><rect fill="#ffffff" stroke="none" x="616" y="216" width="104" height="44"/></g><g transform="translate(2,-86) scale(1,1)"><path fill="none" stroke="#000000" d="M 616 216 L 720 216 L 720 260 L 616 260 L 616 216 Z Z" stroke-miterlimit="10"/></g><g transform="translate(2,-86) scale(1,1)"><path fill="none" stroke="#000000" d="M 616 241 L 720 241" stroke-miterlimit="10"/></g><g transform="translate(2,-86) scale(1,1)"><path fill="none" stroke="#000000" d="M 616 251 L 720 251" stroke-miterlimit="10"/></g><g transform="translate(2,-86) scale(1,1)"><g><path fill="none" stroke="none"/><text fill="#000000" stroke="none" font-family="Arial" font-size="13px" font-style="normal" font-weight="bold" text-decoration="none" x="655.35546875" y="235.5">NLP</text></g></g><g transform="translate(2,-86) scale(1,1)"><rect fill="#C0C0C0" stroke="none" x="615" y="327" width="120" height="44" opacity="0.2"/></g><g transform="translate(2,-86) scale(1,1)"><rect fill="#ffffff" stroke="none" x="608" y="320" width="120" height="44"/></g><g transform="translate(2,-86) scale(1,1)"><path fill="none" stroke="#000000" d="M 608 320 L 728 320 L 728 364 L 608 364 L 608 320 Z Z" stroke-miterlimit="10"/></g><g transform="translate(2,-86) scale(1,1)"><path fill="none" stroke="#000000" d="M 608 345 L 728 345" stroke-miterlimit="10"/></g><g transform="translate(2,-86) scale(1,1)"><path fill="none" stroke="#000000" d="M 608 355 L 728 355" stroke-miterlimit="10"/></g><g transform="translate(2,-86) scale(1,1)"><g><path fill="none" stroke="none"/><text fill="#000000" stroke="none" font-family="Arial" font-size="13px" font-style="normal" font-weight="bold" text-decoration="none" x="643.799560546875" y="339.5">Importer</text></g></g><g transform="translate(2,-86) scale(1,1)"><path fill="none" stroke="#000000" d="M 216 128 L 168 128 M 168 128 A 8 8 0 0 0 160 136 L 160 224" stroke-miterlimit="10"/></g><g transform="translate(2,-86) scale(1,1)"><g><path fill="none" stroke="none"/><text fill="#000000" stroke="none" font-family="Arial" font-size="13px" font-style="normal" font-weight="normal" text-decoration="none" x="184.5" y="121.5">0..*</text></g></g><g transform="translate(2,-86) scale(1,1)"><g><path fill="none" stroke="none"/><text fill="#000000" stroke="none" font-family="Arial" font-size="13px" font-style="normal" font-weight="normal" text-decoration="none" x="137.5" y="208.5">1..*</text></g></g><g transform="translate(2,-86) scale(1,1)"><path fill="none" stroke="#000000" d="M 344 153 L 344 246 M 344 246 A 8 8 0 0 0 352 254 L 416 254" stroke-miterlimit="10"/></g><g transform="translate(2,-86) scale(1,1)"><g><path fill="none" stroke="none"/><text fill="#000000" stroke="none" font-family="Arial" font-size="13px" font-style="normal" font-weight="normal" text-decoration="none" x="321.5" y="180.5">1..*</text></g></g><g transform="translate(2,-86) scale(1,1)"><g><path fill="none" stroke="none"/><text fill="#000000" stroke="none" font-family="Arial" font-size="13px" font-style="normal" font-weight="normal" text-decoration="none" x="384.5" y="272.5">1..*</text></g></g><g transform="translate(2,-86) scale(1,1)"><path fill="none" stroke="#000000" d="M 668 261 L 668 319" stroke-miterlimit="10"/></g><g transform="translate(2,-86) scale(1,1)"><g><path fill="none" stroke="none"/><text fill="#000000" stroke="none" font-family="Arial" font-size="13px" font-style="normal" font-weight="normal" text-decoration="none" x="651.5" y="288.5">1</text></g></g><g transform="translate(2,-86) scale(1,1)"><path fill="none" stroke="#000000" d="M 102 327 L 146 269" stroke-miterlimit="10"/></g><g transform="translate(2,-86) scale(1,1)"><path fill="#FFFFFF" stroke="none" d="M 140.4230055047535 290.28137994585853 L 146 269 L 127.00826130104717 280.10467744649515"/></g><g transform="translate(2,-86) scale(1,1)"><path fill="none" stroke="#000000" d="M 140.4230055047535 290.28137994585853 L 146 269 L 127.00826130104717 280.10467744649515 L 140.4230055047535 290.28137994585853" stroke-miterlimit="10"/></g><g transform="translate(2,-86) scale(1,1)"><path fill="none" stroke="#000000" d="M 255 327 L 190 269" stroke-miterlimit="10"/></g><g transform="translate(2,-86) scale(1,1)"><path fill="#FFFFFF" stroke="none" d="M 210.7708725244244 276.25057615463163 L 190 269 L 199.56029324673233 288.8141563796313"/></g><g transform="translate(2,-86) scale(1,1)"><path fill="none" stroke="#000000" d="M 210.7708725244244 276.25057615463163 L 190 269 L 199.56029324673233 288.8141563796313 L 210.7708725244244 276.25057615463163" stroke-miterlimit="10"/></g><g transform="translate(2,-86) scale(1,1)"><rect fill="#C0C0C0" stroke="none" x="447" y="103" width="104" height="57" opacity="0.2"/></g><g transform="translate(2,-86) scale(1,1)"><rect fill="#ffffff" stroke="none" x="440" y="96" width="104" height="57"/></g><g transform="translate(2,-86) scale(1,1)"><path fill="none" stroke="#000000" d="M 440 96 L 544 96 L 544 153 L 440 153 L 440 96 Z Z" stroke-miterlimit="10"/></g><g transform="translate(2,-86) scale(1,1)"><path fill="none" stroke="#000000" d="M 440 121 L 544 121" stroke-miterlimit="10"/></g><g transform="translate(2,-86) scale(1,1)"><path fill="none" stroke="#000000" d="M 440 131 L 544 131" stroke-miterlimit="10"/></g><g transform="translate(2,-86) scale(1,1)"><g><path fill="none" stroke="none"/><text fill="#000000" stroke="none" font-family="Arial" font-size="13px" font-style="normal" font-weight="bold" text-decoration="none" x="468.155029296875" y="115.5">Partition</text></g></g><g transform="translate(2,-86) scale(1,1)"><g><path fill="none" stroke="none"/><text fill="#000000" stroke="none" font-family="Arial" font-size="13px" font-style="normal" font-weight="normal" text-decoration="none" x="445" y="148.5">+index(sim)</text></g></g><g transform="translate(2,-86) scale(1,1)"><rect fill="#C0C0C0" stroke="none" x="623" y="103" width="104" height="57" opacity="0.2"/></g><g transform="translate(2,-86) scale(1,1)"><rect fill="#ffffff" stroke="none" x="616" y="96" width="104" height="57"/></g><g transform="translate(2,-86) scale(1,1)"><path fill="none" stroke="#000000" d="M 616 96 L 720 96 L 720 153 L 616 153 L 616 96 Z Z" stroke-miterlimit="10"/></g><g transform="translate(2,-86) scale(1,1)"><path fill="none" stroke="#000000" d="M 616 121 L 720 121" stroke-miterlimit="10"/></g><g transform="translate(2,-86) scale(1,1)"><path fill="none" stroke="#000000" d="M 616 131 L 720 131" stroke-miterlimit="10"/></g><g transform="translate(2,-86) scale(1,1)"><g><path fill="none" stroke="none"/><text fill="#000000" stroke="none" font-family="Arial" font-size="13px" font-style="normal" font-weight="bold" text-decoration="none" x="652.09912109375" y="115.5">Index</text></g></g><g transform="translate(2,-86) scale(1,1)"><g><path fill="none" stroke="none"/><text fill="#000000" stroke="none" font-family="Arial" font-size="13px" font-style="normal" font-weight="normal" text-decoration="none" x="621" y="148.5">+find(text)</text></g></g><g transform="translate(2,-86) scale(1,1)"><path fill="none" stroke="#000000" d="M 616 319 L 520 277" stroke-miterlimit="10" stroke-dasharray="3"/></g><g transform="translate(2,-86) scale(1,1)"><path fill="none" stroke="#000000" d="M 530.99786311179 277.2168109183793 L 520 277 L 527.6233551142868 284.9299720555294" stroke-miterlimit="10"/></g><g transform="translate(2,-86) scale(1,1)"><rect fill="#C0C0C0" stroke="none" x="791" y="327" width="119" height="55" opacity="0.2"/></g><g transform="translate(2,-86) scale(1,1)"><rect fill="#ffffff" stroke="none" x="784" y="320" width="119" height="55"/></g><g transform="translate(2,-86) scale(1,1)"><path fill="none" stroke="#000000" d="M 784 320 L 903 320 L 903 375 L 784 375 L 784 320 Z Z" stroke-miterlimit="10"/></g><g transform="translate(2,-86) scale(1,1)"><path fill="none" stroke="#000000" d="M 784 345 L 903 345" stroke-miterlimit="10"/></g><g transform="translate(2,-86) scale(1,1)"><path fill="none" stroke="#000000" d="M 784 355 L 903 355" stroke-miterlimit="10"/></g><g transform="translate(2,-86) scale(1,1)"><g><path fill="none" stroke="none"/><text fill="#000000" stroke="none" font-family="Arial" font-size="13px" font-style="normal" font-weight="bold" text-decoration="none" x="802.319580078125" y="339.5">StringImporter</text></g></g><g transform="translate(2,-86) scale(1,1)"><rect fill="#C0C0C0" stroke="none" x="791" y="407" width="120" height="55" opacity="0.2"/></g><g transform="translate(2,-86) scale(1,1)"><rect fill="#ffffff" stroke="none" x="784" y="400" width="120" height="55"/></g><g transform="translate(2,-86) scale(1,1)"><path fill="none" stroke="#000000" d="M 784 400 L 904 400 L 904 455 L 784 455 L 784 400 Z Z" stroke-miterlimit="10"/></g><g transform="translate(2,-86) scale(1,1)"><path fill="none" stroke="#000000" d="M 784 425 L 904 425" stroke-miterlimit="10"/></g><g transform="translate(2,-86) scale(1,1)"><path fill="none" stroke="#000000" d="M 784 435 L 904 435" stroke-miterlimit="10"/></g><g transform="translate(2,-86) scale(1,1)"><g><path fill="none" stroke="none"/><text fill="#000000" stroke="none" font-family="Arial" font-size="13px" font-style="normal" font-weight="bold" text-decoration="none" x="803.181396484375" y="419.5">NovelImporter</text></g></g><g transform="translate(2,-86) scale(1,1)"><path fill="none" stroke="#000000" d="M 783 345 L 729 344" stroke-miterlimit="10"/></g><g transform="translate(2,-86) scale(1,1)"><path fill="#FFFFFF" stroke="none" d="M 749.4777468078113 335.9587385519948 L 729 344 L 749.165984130403 352.79392313204613"/></g><g transform="translate(2,-86) scale(1,1)"><path fill="none" stroke="#000000" d="M 749.4777468078113 335.9587385519948 L 729 344 L 749.165984130403 352.79392313204613 L 749.4777468078113 335.9587385519948" stroke-miterlimit="10"/></g><g transform="translate(2,-86) scale(1,1)"><path fill="none" stroke="#000000" d="M 786 399 L 716 365" stroke-miterlimit="10"/></g><g transform="translate(2,-86) scale(1,1)"><path fill="#FFFFFF" stroke="none" d="M 737.9611278724058 366.3072347041918 L 716 365 L 730.6045079171466 381.4532169650194"/></g><g transform="translate(2,-86) scale(1,1)"><path fill="none" stroke="#000000" d="M 737.9611278724058 366.3072347041918 L 716 365 L 730.6045079171466 381.4532169650194 L 737.9611278724058 366.3072347041918" stroke-miterlimit="10"/></g><g transform="translate(2,-86) scale(1,1)"><path fill="none" stroke="#000000" d="M 368 124 L 439 124" stroke-miterlimit="10" stroke-dasharray="3"/></g><g transform="translate(2,-86) scale(1,1)"><path fill="none" stroke="#000000" d="M 428.83732514237585 128.209517756016 L 439 124 L 428.83732514237585 119.79048224398402" stroke-miterlimit="10"/></g><g transform="translate(2,-86) scale(1,1)"><path fill="none" stroke="#000000" d="M 545 124 L 615 124" stroke-miterlimit="10" stroke-dasharray="3"/></g><g transform="translate(2,-86) scale(1,1)"><path fill="none" stroke="#000000" d="M 604.8373251423759 128.209517756016 L 615 124 L 604.8373251423758 119.79048224398402" stroke-miterlimit="10"/></g><g transform="translate(2,-86) scale(1,1)"><rect fill="#C0C0C0" stroke="none" x="791" y="103" width="120" height="57" opacity="0.2"/></g><g transform="translate(2,-86) scale(1,1)"><rect fill="#ffffff" stroke="none" x="784" y="96" width="120" height="57"/></g><g transform="translate(2,-86) scale(1,1)"><path fill="none" stroke="#000000" d="M 784 96 L 904 96 L 904 153 L 784 153 L 784 96 Z Z" stroke-miterlimit="10"/></g><g transform="translate(2,-86) scale(1,1)"><path fill="none" stroke="#000000" d="M 784 121 L 904 121" stroke-miterlimit="10"/></g><g transform="translate(2,-86) scale(1,1)"><path fill="none" stroke="#000000" d="M 784 144 L 904 144" stroke-miterlimit="10"/></g><g transform="translate(2,-86) scale(1,1)"><g><path fill="none" stroke="none"/><text fill="#000000" stroke="none" font-family="Arial" font-size="13px" font-style="normal" font-weight="bold" text-decoration="none" x="825.575927734375" y="115.5">Result</text></g></g><g transform="translate(2,-86) scale(1,1)"><g><path fill="none" stroke="none"/><text fill="#000000" stroke="none" font-family="Arial" font-size="13px" font-style="normal" font-weight="normal" text-decoration="none" x="789" y="138.5">+matches</text></g></g><g transform="translate(2,-86) scale(1,1)"><path fill="none" stroke="#000000" d="M 721 124 L 783 124" stroke-miterlimit="10" stroke-dasharray="3"/></g><g transform="translate(2,-86) scale(1,1)"><path fill="none" stroke="#000000" d="M 772.8373251423759 128.209517756016 L 783 124 L 772.8373251423758 119.79048224398402" stroke-miterlimit="10"/></g><g transform="translate(2,-86) scale(1,1)"><rect fill="#C0C0C0" stroke="none" x="999" y="103" width="104" height="56" opacity="0.2"/></g><g transform="translate(2,-86) scale(1,1)"><rect fill="#ffffff" stroke="none" x="992" y="96" width="104" height="56"/></g><g transform="translate(2,-86) scale(1,1)"><path fill="none" stroke="#000000" d="M 992 96 L 1096 96 L 1096 152 L 992 152 L 992 96 Z Z" stroke-miterlimit="10"/></g><g transform="translate(2,-86) scale(1,1)"><path fill="none" stroke="#000000" d="M 992 121 L 1096 121" stroke-miterlimit="10"/></g><g transform="translate(2,-86) scale(1,1)"><path fill="none" stroke="#000000" d="M 992 131 L 1096 131" stroke-miterlimit="10"/></g><g transform="translate(2,-86) scale(1,1)"><g><path fill="none" stroke="none"/><text fill="#000000" stroke="none" font-family="Arial" font-size="13px" font-style="normal" font-weight="bold" text-decoration="none" x="1026.299560546875" y="115.5">Match</text></g></g><g transform="translate(2,-86) scale(1,1)"><path fill="none" stroke="#000000" d="M 991 124 L 905 124" stroke-miterlimit="10"/></g><g transform="translate(2,-86) scale(1,1)"><path fill="#000000" stroke="none" d="M 915.1626748576241 119.79048224398402 L 905 124 L 915.1626748576241 128.209517756016 L 927 124"/></g><g transform="translate(2,-86) scale(1,1)"><path fill="none" stroke="#000000" d="M 915.1626748576241 119.79048224398402 L 905 124 L 915.1626748576241 128.209517756016 L 927 124 L 915.1626748576241 119.79048224398402" stroke-miterlimit="10"/></g><g transform="translate(2,-86) scale(1,1)"><g><path fill="none" stroke="none"/><text fill="#000000" stroke="none" font-family="Arial" font-size="13px" font-style="normal" font-weight="normal" text-decoration="none" x="959.5" y="117.5">0..*</text></g></g><g transform="translate(2,-86) scale(1,1)"><g><path fill="none" stroke="none"/><text fill="#000000" stroke="none" font-family="Arial" font-size="13px" font-style="normal" font-weight="normal" text-decoration="none" x="922.5" y="117.5">1</text></g></g><g transform="translate(2,-86) scale(1,1)"><path fill="none" stroke="#000000" d="M 668 154 L 668 215" stroke-miterlimit="10"/></g><g transform="translate(2,-86) scale(1,1)"><g><path fill="none" stroke="none"/><text fill="#000000" stroke="none" font-family="Arial" font-size="13px" font-style="normal" font-weight="normal" text-decoration="none" x="644.5" y="199.5">0..1</text></g></g><g transform="translate(2,-86) scale(1,1)"><rect fill="#C0C0C0" stroke="none" x="791" y="223" width="120" height="44" opacity="0.2"/></g><g transform="translate(2,-86) scale(1,1)"><rect fill="#ffffff" stroke="none" x="784" y="216" width="120" height="44"/></g><g transform="translate(2,-86) scale(1,1)"><path fill="none" stroke="#000000" d="M 784 216 L 904 216 L 904 260 L 784 260 L 784 216 Z Z" stroke-miterlimit="10"/></g><g transform="translate(2,-86) scale(1,1)"><path fill="none" stroke="#000000" d="M 784 241 L 904 241" stroke-miterlimit="10"/></g><g transform="translate(2,-86) scale(1,1)"><path fill="none" stroke="#000000" d="M 784 251 L 904 251" stroke-miterlimit="10"/></g><g transform="translate(2,-86) scale(1,1)"><g><path fill="none" stroke="none"/><text fill="#000000" stroke="none" font-family="Arial" font-size="13px" font-style="normal" font-weight="bold" text-decoration="none" x="795.945068359375" y="235.5">PartitionEncoder</text></g></g><g transform="translate(2,-86) scale(1,1)"><path fill="none" stroke="#000000" d="M 714 154 L 808 215" stroke-miterlimit="10"/></g><g transform="translate(2,-86) scale(1,1)"><g><path fill="none" stroke="none"/><text fill="#000000" stroke="none" font-family="Arial" font-size="13px" font-style="normal" font-weight="normal" text-decoration="none" x="752.5" y="210.5">0..1</text></g></g><g transform="translate(2,-86) scale(1,1)"><rect fill="#C0C0C0" stroke="none" x="423" y="383" width="112" height="72" opacity="0.2"/></g><g transform="translate(2,-86) scale(1,1)"><rect fill="#ffffff" stroke="none" x="416" y="376" width="112" height="72"/></g><g transform="translate(2,-86) scale(1,1)"><path fill="none" stroke="#000000" d="M 416 376 L 528 376 L 528 448 L 416 448 L 416 376 Z Z" stroke-miterlimit="10"/></g><g transform="translate(2,-86) scale(1,1)"><path fill="none" stroke="#000000" d="M 416 401 L 528 401" stroke-miterlimit="10"/></g><g transform="translate(2,-86) scale(1,1)"><path fill="none" stroke="#000000" d="M 416 411 L 528 411" stroke-miterlimit="10"/></g><g transform="translate(2,-86) scale(1,1)"><g><path fill="none" stroke="none"/><text fill="#000000" stroke="none" font-family="Arial" font-size="13px" font-style="normal" font-weight="bold" text-decoration="none" x="451.04638671875" y="395.5">Corpus</text></g></g><g transform="translate(2,-86) scale(1,1)"><g><path fill="none" stroke="none"/><text fill="#000000" stroke="none" font-family="Arial" font-size="13px" font-style="normal" font-weight="normal" text-decoration="none" x="421" y="428.5">+save()</text></g></g><g transform="translate(2,-86) scale(1,1)"><g><path fill="none" stroke="none"/><text fill="#000000" stroke="none" font-family="Arial" font-size="13px" font-style="normal" font-weight="normal" text-decoration="none" x="421" y="443.5">+load()</text></g></g><g transform="translate(2,-86) scale(1,1)"><path fill="none" stroke="#000000" d="M 469 277 L 471 375" stroke-miterlimit="10"/></g><g transform="translate(2,-86) scale(1,1)"><path fill="#000000" stroke="none" d="M 466.5840002373207 364.9253314647073 L 471 375 L 475.0012830616035 364.7535501825791 L 470.5511138774246 353.00457999380416"/></g><g transform="translate(2,-86) scale(1,1)"><path fill="none" stroke="#000000" d="M 466.5840002373207 364.9253314647073 L 471 375 L 475.0012830616035 364.7535501825791 L 470.5511138774246 353.00457999380416 L 466.5840002373207 364.9253314647073" stroke-miterlimit="10"/></g><g transform="translate(2,-86) scale(1,1)"><g><path fill="none" stroke="none"/><text fill="#000000" stroke="none" font-family="Arial" font-size="13px" font-style="normal" font-weight="normal" text-decoration="none" x="446.5" y="304.5">0..*</text></g></g><g transform="translate(2,-86) scale(1,1)"><g><path fill="none" stroke="none"/><text fill="#000000" stroke="none" font-family="Arial" font-size="13px" font-style="normal" font-weight="normal" text-decoration="none" x="448.5" y="359.5">0..*</text></g></g></g></svg>